<svg width="311" height="94" viewBox="0 0 311 94" fill="none" xmlns="http://www.w3.org/2000/svg">
<path fill-rule="evenodd" clip-rule="evenodd" d="M23.2264 32.8113L25 26.6038L26.7736 32.8113H32.9811L28.1038 36.8019L29.8773 42.566L25.8868 39.9057V89.1226L30.7641 94L34.7547 90.4528L28.9906 83.8019L49.8302 29.2642V24.8302L40.0755 0H25H9.92452L0.1698 24.8302V29.2642L21.0094 83.8019L15.2453 90.4528L19.2358 94L24.1132 89.1226V39.9057L20.1226 42.566L21.8962 36.8019L17.0189 32.8113H23.2264Z" fill="white"/>
<g filter="url(#filter0_d)">
<path d="M95.3047 55.2109C95.3047 53.7109 94.7734 52.5547 93.7109 51.7422C92.6641 50.9297 90.7656 50.1094 88.0156 49.2812C85.2656 48.4531 83.0781 47.5312 81.4531 46.5156C78.3438 44.5625 76.7891 42.0156 76.7891 38.875C76.7891 36.125 77.9062 33.8594 80.1406 32.0781C82.3906 30.2969 85.3047 29.4062 88.8828 29.4062C91.2578 29.4062 93.375 29.8438 95.2344 30.7188C97.0938 31.5938 98.5547 32.8438 99.6172 34.4688C100.68 36.0781 101.211 37.8672 101.211 39.8359H95.3047C95.3047 38.0547 94.7422 36.6641 93.6172 35.6641C92.5078 34.6484 90.9141 34.1406 88.8359 34.1406C86.8984 34.1406 85.3906 34.5547 84.3125 35.3828C83.25 36.2109 82.7188 37.3672 82.7188 38.8516C82.7188 40.1016 83.2969 41.1484 84.4531 41.9922C85.6094 42.8203 87.5156 43.6328 90.1719 44.4297C92.8281 45.2109 94.9609 46.1094 96.5703 47.125C98.1797 48.125 99.3594 49.2812 100.109 50.5938C100.859 51.8906 101.234 53.4141 101.234 55.1641C101.234 58.0078 100.141 60.2734 97.9531 61.9609C95.7812 63.6328 92.8281 64.4688 89.0938 64.4688C86.625 64.4688 84.3516 64.0156 82.2734 63.1094C80.2109 62.1875 78.6016 60.9219 77.4453 59.3125C76.3047 57.7031 75.7344 55.8281 75.7344 53.6875H81.6641C81.6641 55.625 82.3047 57.125 83.5859 58.1875C84.8672 59.25 86.7031 59.7812 89.0938 59.7812C91.1562 59.7812 92.7031 59.3672 93.7344 58.5391C94.7812 57.6953 95.3047 56.5859 95.3047 55.2109ZM131.094 34.6562H120.453V64H114.57V34.6562H104.023V29.875H131.094V34.6562ZM151.883 56.0547H138.664L135.898 64H129.734L142.625 29.875H147.945L160.859 64H154.672L151.883 56.0547ZM140.328 51.2734H150.219L145.273 37.1172L140.328 51.2734ZM177.289 50.8516H170.68V64H164.75V29.875H176.75C180.688 29.875 183.727 30.7578 185.867 32.5234C188.008 34.2891 189.078 36.8438 189.078 40.1875C189.078 42.4688 188.523 44.3828 187.414 45.9297C186.32 47.4609 184.789 48.6406 182.82 49.4688L190.484 63.6953V64H184.133L177.289 50.8516ZM170.68 46.0938H176.773C178.773 46.0938 180.336 45.5938 181.461 44.5938C182.586 43.5781 183.148 42.1953 183.148 40.4453C183.148 38.6172 182.625 37.2031 181.578 36.2031C180.547 35.2031 179 34.6875 176.938 34.6562H170.68V46.0938ZM218.703 32.3359H207.008V64H204.125V32.3359H192.453V29.875H218.703V32.3359ZM243.078 47.6406H227.117V61.5625H245.469V64H224.234V29.875H245.352V32.3359H227.117V45.2031H243.078V47.6406ZM264.312 49.7969H254.398V64H251.492V29.875H262.578C266.219 29.875 269.062 30.7578 271.109 32.5234C273.156 34.2891 274.18 36.7578 274.18 39.9297C274.18 42.1172 273.539 44.0469 272.258 45.7188C270.977 47.3906 269.258 48.5469 267.102 49.1875L275.633 63.6953V64H272.562L264.312 49.7969ZM254.398 47.3359H263.234C265.656 47.3359 267.602 46.6484 269.07 45.2734C270.539 43.8984 271.273 42.1172 271.273 39.9297C271.273 37.5234 270.508 35.6562 268.977 34.3281C267.445 33 265.297 32.3359 262.531 32.3359H254.398V47.3359ZM301.344 55.6094C301.344 53.7188 300.68 52.2266 299.352 51.1328C298.023 50.0234 295.594 48.9766 292.062 47.9922C288.531 46.9922 285.953 45.9062 284.328 44.7344C282.016 43.0781 280.859 40.9062 280.859 38.2188C280.859 35.6094 281.93 33.4922 284.07 31.8672C286.227 30.2266 288.977 29.4062 292.32 29.4062C294.586 29.4062 296.609 29.8438 298.391 30.7188C300.188 31.5938 301.578 32.8125 302.562 34.375C303.547 35.9375 304.039 37.6797 304.039 39.6016H301.133C301.133 37.2734 300.336 35.4062 298.742 34C297.148 32.5781 295.008 31.8672 292.32 31.8672C289.711 31.8672 287.633 32.4531 286.086 33.625C284.539 34.7812 283.766 36.2969 283.766 38.1719C283.766 39.9062 284.461 41.3203 285.852 42.4141C287.242 43.5078 289.469 44.4766 292.531 45.3203C295.594 46.1484 297.914 47.0156 299.492 47.9219C301.07 48.8125 302.258 49.8828 303.055 51.1328C303.852 52.3828 304.25 53.8594 304.25 55.5625C304.25 58.25 303.172 60.4062 301.016 62.0312C298.875 63.6562 296.047 64.4688 292.531 64.4688C290.125 64.4688 287.914 64.0391 285.898 63.1797C283.898 62.3203 282.375 61.1172 281.328 59.5703C280.297 58.0234 279.781 56.25 279.781 54.25H282.664C282.664 56.6562 283.562 58.5547 285.359 59.9453C287.156 61.3359 289.547 62.0312 292.531 62.0312C295.188 62.0312 297.32 61.4453 298.93 60.2734C300.539 59.1016 301.344 57.5469 301.344 55.6094Z" fill="white"/>
</g>
<defs>
<filter id="filter0_d" x="69.7344" y="27.4062" width="240.516" height="47.0625" filterUnits="userSpaceOnUse" color-interpolation-filters="sRGB">
<feFlood flood-opacity="0" result="BackgroundImageFix"/>
<feColorMatrix in="SourceAlpha" type="matrix" values="0 0 0 0 0 0 0 0 0 0 0 0 0 0 0 0 0 0 127 0"/>
<feOffset dy="4"/>
<feGaussianBlur stdDeviation="3"/>
<feColorMatrix type="matrix" values="0 0 0 0 0 0 0 0 0 0 0 0 0 0 0 0 0 0 0.25 0"/>
<feBlend mode="normal" in2="BackgroundImageFix" result="effect1_dropShadow"/>
<feBlend mode="normal" in="SourceGraphic" in2="effect1_dropShadow" result="shape"/>
</filter>
</defs>
</svg>
